<?xml version="1.0" encoding="UTF-8" standalone="no"?>
<!-- Created with Inkscape (http://www.inkscape.org/) -->
<svg xmlns:dc="http://purl.org/dc/elements/1.1/" xmlns:cc="http://creativecommons.org/ns#" xmlns:rdf="http://www.w3.org/1999/02/22-rdf-syntax-ns#" xmlns:svg="http://www.w3.org/2000/svg" xmlns="http://www.w3.org/2000/svg" xmlns:xlink="http://www.w3.org/1999/xlink" xmlns:sodipodi="http://sodipodi.sourceforge.net/DTD/sodipodi-0.dtd" xmlns:inkscape="http://www.inkscape.org/namespaces/inkscape" width="794" height="142" id="svg2" sodipodi:version="0.32" inkscape:version="0.47 r22583" version="1.0">
  <g inkscape:label="Layer 1" inkscape:groupmode="layer" id="layer1" transform="translate(-10.074077,-904.25139)">
    <path id="path30769" d="m 191.32607,993.10963 -30.59349,51.95117 -23.88313,0 42.71545,-71.57719 -40.00966,-68.04167 23.91921,0 27.85162,48.41565 27.85163,-48.41565 23.95529,0 -40.04574,68.04167 42.78761,71.57719 -23.91921,0 -30.62958,-51.95117 z" style="fill:#e51839;fill-rule:nonzero;stroke:none"/>
    <path id="path30771" d="m 253.12638,905.44194 89.219,0 0,19.98679 -68.04166,0 0,39.82927 58.04827,0 0,18.79624 -58.04827,0 0,40.98376 68.04166,0 0,20.0228 -89.219,0 0,-139.61886 z" style="fill:#e51839;fill-rule:nonzero;stroke:none"/>
    <path id="path30773" d="m 361.9714,1011.1122 c 10.60671,8.4781 24.71291,13.9258 39.61281,13.9258 17.24492,0 27.67124,-7.8288 27.67124,-19.4096 0,-9.7769 -5.70021,-17.24489 -18.25509,-18.83229 -6.27743,-0.75762 -11.18394,-1.55132 -18.43546,-2.52541 -24.0996,-3.3191 -37.0874,-19.0127 -37.0874,-39.25203 0,-23.88313 16.66768,-40.76728 45.52947,-40.76728 17.24492,0 32.54167,6.09706 45.27693,14.50305 l -11.76118,17.46138 c -10.17378,-6.45782 -22.11534,-10.78709 -34.48983,-10.78709 -12.95173,0 -23.34198,6.67429 -23.34198,19.98679 0,7.86484 5.66413,15.6936 19.80641,17.85823 3.71595,0.57724 9.01931,1.37094 15.65752,2.16464 26.08384,3.13872 38.27794,21.17733 38.27794,40.19001 0,25.687 -19.04878,40.623 -49.06504,40.623 -20.56402,0 -38.63872,-6.2774 -53.32215,-19.2292 l 13.92581,-15.91 z" style="fill:#e51839;fill-rule:nonzero;stroke:none"/>
    <path id="path30775" d="m 469.04864,1011.1122 c 10.60671,8.4781 24.7129,13.9258 39.6128,13.9258 17.24492,0 27.67124,-7.8288 27.67124,-19.4096 0,-9.7769 -5.7002,-17.24489 -18.25508,-18.83229 -6.27744,-0.75762 -11.18394,-1.55132 -18.43547,-2.52541 -24.13567,-3.3191 -37.08739,-19.0127 -37.08739,-39.25203 0,-23.88313 16.66768,-40.76728 45.52947,-40.76728 17.24492,0 32.54166,6.09706 45.31301,14.50305 l -11.76118,17.46138 c -10.20986,-6.45782 -22.1875,-10.78709 -34.52592,-10.78709 -12.95173,0 -23.34197,6.67429 -23.34197,19.98679 0,7.86484 5.66413,15.6936 19.8064,17.85823 3.71596,0.57724 9.01931,1.37094 15.6936,2.16464 26.08384,3.13872 38.24187,21.17733 38.24187,40.19001 0,25.687 -19.0127,40.623 -49.06504,40.623 -20.56403,0 -38.60264,-6.2774 -53.32216,-19.2292 l 13.92582,-15.91 z" style="fill:#e51839;fill-rule:nonzero;stroke:none"/>
    <path id="path30777" d="m 69.276786,995.0578 39.540654,-54.00763 -0.0361,54.00763 -39.504574,0 z m 42.823674,-89.68801 -102.026383,139.72711 22.476082,0 22.764736,-31.0625 53.394305,0 0.0722,31.0625 21.17734,0 0,-139.72711 -17.85824,0 z" style="fill:#e51839;fill-rule:nonzero;stroke:none"/>
    <path id="path30779" d="m 757.48614,1044.4475 -17.85823,0 -45.45732,-138.32009 22.07927,0 32.3252,102.06249 32.32521,-102.06249 22.44004,0 -45.85417,138.32009 z" style="fill:#e51839;fill-rule:nonzero;stroke:none"/>
    <path id="path30781" stroke-miterlimit="4" d="m 757.48614,1044.4475 -17.85823,0 -45.45732,-138.32009 22.07927,0 32.3252,102.06249 32.32521,-102.06249 22.44004,0 -45.85417,138.32009 z" style="fill:none;stroke:#e51839;stroke-width:1.44308937;stroke-linecap:butt;stroke-linejoin:miter;stroke-miterlimit:4"/>
    <path id="path30783" d="m 587.95921,905.36979 0,21.53811 47.29725,0 0,118.189 22.76474,0 0,-118.189 43.65346,0 0,-21.53811 -113.71545,0 z" style="fill:#e51839;fill-rule:nonzero;stroke:none"/>
  </g>
</svg>