<?xml version="1.0" encoding="UTF-8" standalone="no"?>
<!-- Created with Inkscape (http://www.inkscape.org/) -->
<svg xmlns:dc="http://purl.org/dc/elements/1.1/" xmlns:cc="http://creativecommons.org/ns#" xmlns:rdf="http://www.w3.org/1999/02/22-rdf-syntax-ns#" xmlns:svg="http://www.w3.org/2000/svg" xmlns="http://www.w3.org/2000/svg" xmlns:sodipodi="http://sodipodi.sourceforge.net/DTD/sodipodi-0.dtd" xmlns:inkscape="http://www.inkscape.org/namespaces/inkscape" width="1000" height="1000" id="svg2" version="1.1" inkscape:version="0.48.5 r10040" sodipodi:docname="A.svg">
  <defs id="defs4">
    <clipPath id="clipPath7151" clipPathUnits="userSpaceOnUse">
      <path id="path7153" d="m 664.016,528.803 56.81,0 0,13.111 -56.81,0 0,-13.111 z" inkscape:connector-curvature="0"/>
    </clipPath>
    <clipPath id="clipPath7103" clipPathUnits="userSpaceOnUse">
      <path id="path7105" d="m 664.016,628.016 56.939,0 0,13.141 -56.939,0 0,-13.141 z" inkscape:connector-curvature="0"/>
    </clipPath>
    <clipPath id="clipPath3583" clipPathUnits="userSpaceOnUse">
      <path id="path3585" d="m 28.346,356.42 81.569,0 0,9.712 -81.569,0 0,-9.712 z" inkscape:connector-curvature="0"/>
    </clipPath>
    <clipPath id="clipPath7103-2" clipPathUnits="userSpaceOnUse">
      <path id="path7105-5" d="m 664.016,628.016 56.939,0 0,13.141 -56.939,0 0,-13.141 z" inkscape:connector-curvature="0"/>
    </clipPath>
    <clipPath id="clipPath3583-8" clipPathUnits="userSpaceOnUse">
      <path id="path3585-0" d="m 28.346,356.42 81.569,0 0,9.712 -81.569,0 0,-9.712 z" inkscape:connector-curvature="0"/>
    </clipPath>
  </defs>
  <sodipodi:namedview id="base" pagecolor="#ffffff" bordercolor="#666666" borderopacity="1.0" inkscape:pageopacity="0.0" inkscape:pageshadow="2" inkscape:zoom="0.14099121" inkscape:cx="1411.0009" inkscape:cy="-1367.7872" inkscape:document-units="px" inkscape:current-layer="layer1" showgrid="false" fit-margin-top="0" fit-margin-left="0" fit-margin-right="0" fit-margin-bottom="0" inkscape:window-width="1021" inkscape:window-height="1022" inkscape:window-x="894" inkscape:window-y="-4" inkscape:window-maximized="0">
    <inkscape:grid type="xygrid" id="grid2996" empspacing="5" visible="true" enabled="true" snapvisiblegridlinesonly="true" originx="-1200px" originy="-940px"/>
  </sodipodi:namedview>
  <metadata id="metadata7">
    <rdf:RDF>
      <cc:Work rdf:about="">
        <dc:format>image/svg+xml</dc:format>
        <dc:type rdf:resource="http://purl.org/dc/dcmitype/StillImage"/>
        <dc:title/>
      </cc:Work>
    </rdf:RDF>
  </metadata>
  <g inkscape:label="Layer 1" inkscape:groupmode="layer" id="layer1" transform="translate(-1200,887.63781)">
    <path style="fill:#ff001e;fill-opacity:1;fill-rule:evenodd;stroke:none" d="m 1200,-193.63781 0,-694 1000,0 0,694 -166,165.999998 -674,0 z" id="path4387" inkscape:connector-curvature="0"/>
    <path inkscape:connector-curvature="0" d="m 1200,112.36219 1000,0 0,-306 -1000,0 z" style="fill:#000000;fill-opacity:1;fill-rule:nonzero;stroke:none" id="path7145" sodipodi:nodetypes="ccccc"/>
    <g id="g7155" transform="matrix(21.64904,0,0,-21.64904,1556.734,2.054648)">
      <path inkscape:connector-curvature="0" d="M -0.15926745,0 -2.93,0 c -0.083,0 -0.099,0.033 -0.099,0.1 l 0,3.941 c 0,0.066 0.016,0.1 0.099,0.1 l 2.77073255,0 C 1.5827326,4.141 2.2797326,3.643 2.2797326,2.075 2.2797326,0.506 1.5827326,0 -0.15926745,0 M 2.2627326,5.344 -6.93,5.344 c -0.083,0 -0.125,-0.05 -0.125,-0.124 l 0,-6.299 c 0,-0.075 0.042,-0.124 0.125,-0.124 l 9.1927326,0 c 2.746,0 4.133,0.912 4.133,3.294 0,2.365 -1.387,3.253 -4.133,3.253" style="fill:#ffffff;fill-opacity:1;fill-rule:nonzero;stroke:none" id="path7157" sodipodi:nodetypes="cssssssccssssssc"/>
    </g>
    <g id="g7159" transform="matrix(21.64904,0,0,-21.64904,1890.8718,-34.413152)">
      <path inkscape:connector-curvature="0" d="M -0.34786038,0 -3.4896615,0 c -0.075,0 -0.1,0.025 -0.1,0.099 l 0,2.258 c 0,0.074 0.025,0.099 0.1,0.099 l 3.14180112,0 c 1.096,0 1.56000008,-0.299 1.56000008,-1.203 C 1.2121397,0.34 0.74813962,0 -0.34786038,0 m 5.75994638,-2.622 -2.705,1.908 c -0.067,0.05 -0.108,0.075 -0.108,0.108 0,0.033 0.025,0.05 0.083,0.05 1.369,0 2.431,0.639 2.431,2.049 0,1.403 -0.913,2.166 -2.597,2.166 l -10.0067475,0 c -0.083,0 -0.125,-0.049 -0.125,-0.124 l 0,-6.298 c 0,-0.075 0.042,-0.125 0.125,-0.125 l 3.771,0 c 0.083,0 0.125,0.05 0.125,0.125 l 0,1.493 c 0,0.075 0.024,0.1 0.099,0.1 l 2.0567237,0 c 0.108,0 0.15,-0.008 0.224,-0.067 l 1.82769043,-1.559 c 0.092,-0.075 0.158,-0.092 0.26500004,-0.092 l 4.61733333,0 c 0.067,0 0.1,0.025 0.1,0.075 0,0.066 -0.117,0.141 -0.183,0.191" style="fill:#ffffff;fill-opacity:1;fill-rule:nonzero;stroke:none" id="path7161" sodipodi:nodetypes="csssssscccsssssssssssssccsssc"/>
    </g>
    <g transform="matrix(1.8668013,0,0,1.8668013,331.37572,663.04701)" id="layer1-5" inkscape:label="Layer 1" style="fill:#ffffff">
      <g transform="matrix(28.108013,0,0,-28.108013,768.70601,-742.34521)" id="g7117" style="fill:#ffffff">
        <path inkscape:connector-curvature="0" id="path7119" style="fill:#ffffff;fill-opacity:1;fill-rule:nonzero;stroke:none" d="m 0,0 c 0,0.082 -0.039,0.131 -0.131,0.131 -1.85,0 -2.813,-0.224 -3.519,-0.405 -0.077,-0.022 -0.115,-0.038 -0.115,-0.109 l 0,-1.68 c 0,-0.071 0.016,-0.093 0.066,-0.093 0.022,0 0.049,0.005 0.098,0.017 0.323,0.076 0.799,0.213 1.483,0.279 0.022,0 0.071,0 0.071,-0.083 l 0,-3.283 c 0,-0.093 -0.043,-0.131 -0.131,-0.131 l -1.675,0 c -0.087,0 -0.131,-0.038 -0.131,-0.131 l 0,-1.494 c 0,-0.066 0.044,-0.115 0.131,-0.115 l 5.505,0 c 0.088,0 0.132,0.049 0.132,0.115 l 0,1.494 c 0,0.093 -0.044,0.131 -0.132,0.131 l -1.521,0 C 0.043,-5.357 0,-5.319 0,-5.226 L 0,0 z"/>
      </g>
    </g>
  </g>
</svg>