<?xml version="1.0" encoding="UTF-8" standalone="no"?>
<!-- Created with Inkscape (http://www.inkscape.org/) -->
<svg xmlns:dc="http://purl.org/dc/elements/1.1/" xmlns:cc="http://web.resource.org/cc/" xmlns:rdf="http://www.w3.org/1999/02/22-rdf-syntax-ns#" xmlns:svg="http://www.w3.org/2000/svg" xmlns="http://www.w3.org/2000/svg" xmlns:xlink="http://www.w3.org/1999/xlink" xmlns:sodipodi="http://sodipodi.sourceforge.net/DTD/sodipodi-0.dtd" xmlns:inkscape="http://www.inkscape.org/namespaces/inkscape" width="250" height="250" id="svg2" sodipodi:version="0.32" inkscape:version="0.45.1" version="1.0" inkscape:output_extension="org.inkscape.output.svg.inkscape">
  <g inkscape:label="Layer 1" inkscape:groupmode="layer" id="layer1" transform="translate(-29.999958,-788.64387)">
    <g id="g12487" clip-path="url(#id1309)" transform="matrix(13.56744,0,0,-13.63734,-3242.6556,9233.3245)">
      <g id="g12489" transform="scale(0.1044312,0.1038971)">
        <g id="g12491" clip-path="url(#id1310)">
          <path id="path12493" d="M 2480.617,5872.041 C 2480.617,5826.484 2443.685,5789.552 2398.129,5789.552 C 2352.572,5789.552 2315.641,5826.484 2315.641,5872.041 C 2315.641,5917.597 2352.572,5954.529 2398.129,5954.529 C 2443.685,5954.529 2480.617,5917.597 2480.617,5872.041" style="fill:#ffffff;fill-rule:nonzero;stroke:none"/>
          <path id="path12495" d="M 2343.298,5817.12 C 2328.686,5831.732 2320.636,5851.166 2320.636,5871.833 C 2320.636,5892.498 2328.686,5911.928 2343.298,5926.542 C 2357.914,5941.157 2377.346,5949.204 2398.007,5949.204 C 2418.679,5949.204 2438.109,5941.157 2452.718,5926.542 C 2467.341,5911.928 2475.384,5892.498 2475.384,5871.833 C 2475.384,5851.166 2467.341,5831.732 2452.718,5817.12 C 2438.109,5802.503 2418.679,5794.456 2398.007,5794.456 C 2377.346,5794.456 2357.914,5802.503 2343.298,5817.12 M 2335.628,5934.213 C 2318.961,5917.551 2309.788,5895.397 2309.788,5871.833 C 2309.788,5848.267 2318.961,5826.11 2335.628,5809.446 C 2352.291,5792.784 2374.445,5783.609 2398.007,5783.609 C 2421.579,5783.609 2443.731,5792.784 2460.395,5809.446 C 2477.058,5826.11 2486.234,5848.267 2486.234,5871.833 C 2486.234,5895.397 2477.058,5917.551 2460.395,5934.213 C 2443.731,5950.878 2421.579,5960.053 2398.007,5960.053 C 2374.445,5960.053 2352.291,5950.878 2335.628,5934.213" style="fill:#e2002e;fill-rule:nonzero;stroke:none"/>
          <path id="path12497" d="M 2435.674,5926.102 L 2432.726,5895.216 L 2398.737,5895.216 C 2398.737,5895.216 2397.756,5889.815 2397.265,5886.623 C 2413.475,5889.079 2431.653,5885.638 2439.755,5870.657 C 2445.896,5857.396 2442.95,5841.919 2434.109,5830.868 C 2417.653,5811.708 2390.876,5810.97 2368.775,5818.829 C 2361.7,5821.456 2358.092,5825.064 2358.092,5825.064 C 2358.092,5825.064 2360.179,5841.425 2361.653,5848.308 C 2371.231,5841.674 2386.215,5836.763 2397.022,5844.374 C 2400.584,5847.025 2402.406,5850.765 2401.442,5855.427 C 2398.667,5863.196 2389.159,5865.743 2380.81,5865.743 C 2374.609,5865.32 2368.546,5864.409 2363.371,5860.097 C 2365.339,5882.198 2369.018,5904.062 2371.721,5926.167 L 2435.674,5926.102 z " style="fill:#00315e;fill-rule:nonzero;stroke:none"/>
        </g>
      </g>
    </g>
    <g id="g17255" clip-path="url(#id1953)" transform="matrix(1,0,0,-1,-519.98318,1536.4651)">
      <g id="g17257" clip-path="url(#id1954)">
        <g id="g17259" transform="matrix(27.114563,0,0,10.269638,895.75037,681.83278)">
          <use id="use17261" xlink:href="#id1242" x="0" y="0" width="744.09448" height="1052.3622"/>
        </g>
      </g>
    </g>
  </g>
</svg>