<?xml version="1.0" encoding="UTF-8" standalone="no"?>
<!-- Created with Inkscape (http://www.inkscape.org/) -->
<svg xmlns:dc="http://purl.org/dc/elements/1.1/" xmlns:cc="http://web.resource.org/cc/" xmlns:rdf="http://www.w3.org/1999/02/22-rdf-syntax-ns#" xmlns:svg="http://www.w3.org/2000/svg" xmlns="http://www.w3.org/2000/svg" xmlns:xlink="http://www.w3.org/1999/xlink" xmlns:sodipodi="http://sodipodi.sourceforge.net/DTD/sodipodi-0.dtd" xmlns:inkscape="http://www.inkscape.org/namespaces/inkscape" width="250" height="250" id="svg2" sodipodi:version="0.32" inkscape:version="0.45.1" version="1.0" inkscape:output_extension="org.inkscape.output.svg.inkscape">
  <g inkscape:label="Layer 1" inkscape:groupmode="layer" id="layer1" transform="translate(-84.569223,-381.89726)">
    <g id="g12551" clip-path="url(#id1317)" transform="matrix(13.571467,0,0,-13.571467,-3561.1611,8786.6661)">
      <g id="g12553" clip-path="url(#id1318)">
        <path id="path12555" d="M 276.213,601.994 L 276.528,601.942 L 276.447,602.418 L 276.213,601.994 z M 282.621,602.671 L 282.052,603.554 L 281.639,603.286 L 281.413,603.61 C 281.413,603.61 281.657,603.753 282.043,604.013 C 282.428,604.274 282.661,604.478 282.661,604.478 L 282.908,604.112 L 282.497,603.844 L 283.066,602.98 L 282.621,602.671 z M 281.278,601.959 L 281.122,602.146 L 280.6,601.959 L 280.6,601.705 L 280.068,601.552 L 280.152,603.063 L 280.758,603.3 L 281.78,602.19 L 281.278,601.959 z M 278.637,601.297 C 278.229,601.261 277.78,601.277 277.743,601.671 L 278.38,601.728 C 278.387,601.683 278.406,601.654 278.445,601.638 C 278.486,601.622 278.545,601.618 278.628,601.626 C 278.793,601.641 278.833,601.69 278.828,601.753 C 278.825,601.794 278.797,601.83 278.725,601.835 L 278.113,601.87 C 277.85,601.886 277.729,602.027 277.712,602.215 C 277.681,602.562 278.013,602.686 278.447,602.725 C 279.044,602.779 279.304,602.645 279.348,602.363 L 278.733,602.308 C 278.729,602.363 278.694,602.393 278.642,602.408 C 278.594,602.424 278.533,602.427 278.475,602.421 C 278.318,602.407 278.267,602.363 278.272,602.307 C 278.275,602.27 278.294,602.246 278.347,602.243 L 278.988,602.206 C 279.258,602.19 279.434,602.081 279.454,601.855 C 279.483,601.528 279.231,601.35 278.637,601.297 M 276.613,601.348 L 276.591,601.599 L 276.044,601.69 L 275.922,601.472 L 275.397,601.606 L 276.189,602.889 L 276.832,602.758 L 277.17,601.288 L 276.613,601.348 z M 274.777,601.81 L 274.279,602.013 L 274.801,603.343 L 275.299,603.147 L 274.777,601.81 z M 272.589,602.999 L 272.851,604.634 L 273.332,604.235 L 273.083,603.237 L 273.873,603.851 L 274.375,603.545 L 273.049,602.663 L 272.589,602.999 z M 282.25,618.171 L 280.931,616.364 C 283.245,615.22 284.842,612.836 284.842,610.085 C 284.842,606.223 281.701,603.082 277.84,603.082 C 273.98,603.082 270.839,606.223 270.839,610.085 C 270.839,612.71 272.293,615.002 274.437,616.199 L 276.639,619.216 C 272.125,618.625 268.627,614.757 268.627,610.085 C 268.627,605.004 272.76,600.872 277.84,600.872 C 282.92,600.872 287.053,605.004 287.053,610.085 C 287.053,613.568 285.109,616.606 282.25,618.171 M 280.6,602.308 L 280.901,602.415 L 280.598,602.791 L 280.6,602.308 z " style="fill:#040403;fill-rule:nonzero;stroke:none"/>
        <path id="path12557" d="M 277.87,612.581 C 279.279,612.581 280.425,611.435 280.425,610.026 C 280.425,608.617 279.279,607.47 277.87,607.47 C 276.461,607.47 275.315,608.617 275.315,610.026 C 275.315,611.435 276.461,612.581 277.87,612.581 M 273.529,612.922 L 273.438,612.785 L 273.438,612.774 C 272.925,611.948 272.652,611.003 272.652,610.026 C 272.652,607.148 274.993,604.807 277.87,604.807 C 280.748,604.807 283.089,607.148 283.089,610.026 C 283.089,612.695 281.074,614.901 278.485,615.206 L 281.029,618.691 C 280.131,619.039 279.157,619.233 278.138,619.237 L 273.759,613.236 C 273.68,613.137 273.601,613.029 273.529,612.922" style="fill:#9f2d17;fill-rule:nonzero;stroke:none"/>
      </g>
    </g>
  </g>
</svg>